<?xml version="1.0" standalone="no"?>
<!DOCTYPE svg PUBLIC "-//W3C//DTD SVG 20010904//EN"
 "http://www.w3.org/TR/2001/REC-SVG-20010904/DTD/svg10.dtd">
<svg version="1.0" xmlns="http://www.w3.org/2000/svg"
 width="474.000000pt" height="474.000000pt" viewBox="0 0 474.000000 474.000000"
 preserveAspectRatio="xMidYMid meet">
<metadata>
Created by potrace 1.14, written by Peter Selinger 2001-2017
</metadata>
<g transform="translate(0.000000,474.000000) scale(0.100000,-0.100000)"
fill="#000000" stroke="none">
<path d="M2218 4735 c-2 -1 -39 -5 -82 -9 -44 -4 -82 -8 -85 -10 -3 -2 -31 -7
-61 -11 -30 -3 -73 -11 -95 -17 -22 -5 -47 -11 -55 -13 -49 -10 -151 -40 -227
-66 -475 -168 -891 -498 -1173 -929 -72 -112 -174 -316 -223 -450 -36 -96 -90
-292 -101 -365 -4 -22 -11 -65 -16 -95 -15 -89 -23 -224 -23 -395 0 -149 9
-341 18 -368 2 -7 6 -37 10 -67 8 -78 60 -283 101 -403 32 -91 144 -332 191
-412 293 -489 762 -859 1299 -1023 54 -17 115 -34 134 -38 19 -4 40 -9 45 -10
6 -2 48 -10 95 -18 47 -8 101 -18 120 -22 71 -13 463 -12 565 1 204 28 486
100 582 150 15 8 32 15 36 15 18 0 185 85 282 143 304 182 561 431 756 729 53
83 164 292 196 373 40 100 54 141 82 240 32 113 34 121 51 215 5 30 12 69 15
85 13 74 20 216 20 415 0 187 -10 373 -20 390 -1 3 -6 27 -9 54 -4 27 -9 52
-11 55 -1 3 -6 24 -9 46 -4 22 -12 58 -18 80 -6 22 -13 46 -14 54 -7 37 -71
216 -106 296 -114 261 -267 487 -471 694 -373 379 -840 607 -1387 677 -37 5
-408 13 -412 9z"/>
</g>
</svg>
